# xmcd CD database file
#
# Track frame offsets:
#	150
#	15595
#	33012
#	51449
#	76147
#	93955
#	108929
#	122652
#	133570
#	151765
#	168427
#	185483
#	196964
#	210858
#	223582
#
# Disc length: 3165 seconds
#
# Revision: 2
# Processed by: cddbd v1.5.1PL2 Copyright (c) Steve Scherf et al.
# Submitted via: Feurio! 1.68 - http://www.feurio.com
#
DISCID=b60c5b0f
DTITLE=Various Artist - Shout! Victory CD 2
DYEAR=2004
DGENRE=Southern Gospel
TTITLE0=Perrys - I Wish I Could Have Been There
TTITLE1=Hoskins Family - Places To Go , People To See
TTITLE2=Booth Brothers - Thank Him For the Miracle
TTITLE3=Kim Hopper - The Cross Said It All
TTITLE4=Mercy's Mark - I'm On The Battlefield
TTITLE5=Ruppes - Hope Is Alive
TTITLE6=Jeff and Sheri Easter - We Are Broken
TTITLE7=Brian Free and Assurance - My Answer Is Yes
TTITLE8=The Dunnaways - Beautiful Day
TTITLE9=Inspirations - Looking To Live
TTITLE10=Whisnants - Even In The Valley
TTITLE11=Palmetto State Quartet - Knock, Knock, Kock
TTITLE12=McKameys - God Is So Good To Me
TTITLE13=Signature Sound Quartet  - Stand By Me
TTITLE14=Martins - Sing Me Home
EXTD=
EXTT0=
EXTT1=
EXTT2=
EXTT3=
EXTT4=
EXTT5=
EXTT6=
EXTT7=
EXTT8=
EXTT9=
EXTT10=
EXTT11=
EXTT12=
EXTT13=
EXTT14=
PLAYORDER=
